<?xml version="1.0" encoding="utf-8"?>
<!-- Generator: Adobe Illustrator 27.3.1, SVG Export Plug-In . SVG Version: 6.00 Build 0)  -->
<svg version="1.1" xmlns="http://www.w3.org/2000/svg" xmlns:xlink="http://www.w3.org/1999/xlink" x="0px" y="0px"
	 viewBox="0 0 567.1 124.65" style="enable-background:new 0 0 567.1 124.65;" xml:space="preserve">
<style type="text/css">
	.st0{fill:#FFFFFF;}
	.st1{fill:#319B42;}
	.st2{fill:#00558C;}
</style>
<g id="Layer_3">
</g>
<g id="Layer_1">
	<g>
		<g>
			<path class="st0" d="M202.02,102.13l9.63,22.14h-5.51l-1.91-4.69h-8.6l-1.85,4.69h-5.38l9.57-22.14H202.02z M197.17,115.45h5.41
				l-2.72-6.88L197.17,115.45z"/>
			<path class="st0" d="M227.06,111.42c1.09-1.94,2.56-2.72,4.82-2.72c3.63,0,5.38,2.31,5.38,6.44v9.13h-4.69v-8.91
				c0-1.56-0.69-2.53-2.06-2.53c-1.94,0-2.84,1.28-2.84,3.31v8.13h-4.69v-8.32c0-2.31-0.75-3.13-2.09-3.13
				c-1.88,0-2.82,1.06-2.82,3.72v7.72h-4.69v-15.2h4.5v2.07h0.06c0.85-1.53,2.53-2.44,4.44-2.44
				C224.52,108.7,226.21,109.57,227.06,111.42z"/>
			<path class="st0" d="M248.56,108.7c2.94,0,7.01,1.81,7.01,8.13v1.31h-10.89c0.38,1.72,1.63,2.94,3.53,2.94
				c1.59,0,2.57-0.81,3.35-1.85l3.28,2.41c-1.47,1.91-4.03,3-6.41,3c-4.54,0-8.45-3-8.45-7.97C240,111.86,243.69,108.7,248.56,108.7
				z M250.88,114.95c0-1.72-1.28-2.88-2.91-2.88c-1.75,0-3.13,1.13-3.29,2.88H250.88z"/>
			<path class="st0" d="M269.13,108.85v4.29c-0.69-0.19-1.28-0.31-2-0.31c-3.34,0-4,1.78-4,4.91v6.54h-4.69v-15.2h4.69v2.44h0.06
				c1-1.85,2.31-2.81,4.41-2.81C268.09,108.7,268.69,108.73,269.13,108.85z"/>
			<path class="st0" d="M276.12,104.29c0,1.47-1.19,2.72-2.72,2.72c-1.5,0-2.72-1.25-2.72-2.72c0-1.56,1.25-2.72,2.72-2.72
				C274.93,101.57,276.12,102.82,276.12,104.29z M275.75,109.07v15.2h-4.69v-15.2H275.75z"/>
			<path class="st0" d="M292.32,110.73l-3.1,3.25c-0.53-0.72-1.44-1.16-2.31-1.16c-2.31,0-3.75,1.56-3.75,3.85
				c0,2.38,1.53,3.85,3.75,3.85c0.69,0,1.59-0.28,2.31-1.16l3.1,3.25c-1.38,1.41-3.47,2.03-5.41,2.03c-4.69,0-8.45-3.13-8.45-7.97
				c0-4.85,3.75-7.98,8.45-7.98C288.82,108.7,290.97,109.32,292.32,110.73z"/>
			<path class="st0" d="M308.03,116.33v7.95h-4.32v-1.91h-0.06c-1.03,1.62-2.94,2.28-4.82,2.28c-2.81,0-5.41-1.62-5.41-4.69
				c0-5.32,6.57-5.35,10.29-5.35c0-1.72-1.44-2.72-3-2.72c-1.53,0-2.81,0.69-3.82,1.81l-2.5-2.56c1.75-1.69,4.32-2.44,6.69-2.44
				C306.34,108.7,308.03,111.29,308.03,116.33z M300.18,121.46c1.78,0,3.53-0.94,3.53-2.88v-0.97h-1.41c-1.41,0-4.38,0.22-4.38,2.19
				C297.93,120.99,299.18,121.46,300.18,121.46z"/>
			<path class="st0" d="M325.88,115.67v8.6h-4.69v-7.82c0-2.69-0.81-3.63-2.44-3.63c-1.88,0-2.82,1.13-2.82,3.72v7.72h-4.69v-15.2
				h4.5v2.07h0.06c0.85-1.53,2.5-2.44,4.44-2.44C324.1,108.7,325.88,110.67,325.88,115.67z"/>
			<path class="st0" d="M343.24,102.13v22.14h-4.88v-22.14H343.24z"/>
			<path class="st0" d="M361.65,115.67v8.6h-4.69v-7.82c0-2.69-0.81-3.63-2.44-3.63c-1.88,0-2.82,1.13-2.82,3.72v7.72h-4.69v-15.2
				h4.5v2.07h0.06c0.85-1.53,2.5-2.44,4.44-2.44C359.87,108.7,361.65,110.67,361.65,115.67z"/>
			<path class="st0" d="M378.22,110.73l-3.1,3.25c-0.53-0.72-1.44-1.16-2.31-1.16c-2.31,0-3.75,1.56-3.75,3.85
				c0,2.38,1.53,3.85,3.75,3.85c0.69,0,1.59-0.28,2.31-1.16l3.1,3.25c-1.38,1.41-3.47,2.03-5.41,2.03c-4.69,0-8.45-3.13-8.45-7.97
				c0-4.85,3.75-7.98,8.45-7.98C374.71,108.7,376.87,109.32,378.22,110.73z"/>
			<path class="st0" d="M395.77,116.67c0,4.82-3.79,7.97-8.45,7.97c-4.69,0-8.45-3.1-8.45-7.97c0-4.85,3.75-7.98,8.45-7.98
				C392.01,108.7,395.77,111.83,395.77,116.67z M387.32,120.52c2.28,0,3.75-1.5,3.75-3.85c0-2.38-1.47-3.85-3.78-3.85
				c-2.28,0-3.72,1.59-3.72,3.85C383.57,118.96,385.01,120.52,387.32,120.52z"/>
			<path class="st0" d="M412.2,111.42c1.09-1.94,2.56-2.72,4.82-2.72c3.63,0,5.38,2.31,5.38,6.44v9.13h-4.69v-8.91
				c0-1.56-0.69-2.53-2.06-2.53c-1.94,0-2.84,1.28-2.84,3.31v8.13h-4.69v-8.32c0-2.31-0.75-3.13-2.09-3.13
				c-1.88,0-2.82,1.06-2.82,3.72v7.72h-4.69v-15.2h4.5v2.07h0.06c0.85-1.53,2.53-2.44,4.44-2.44
				C409.66,108.7,411.35,109.57,412.2,111.42z"/>
			<path class="st0" d="M433.7,108.7c2.94,0,7.01,1.81,7.01,8.13v1.31h-10.89c0.38,1.72,1.63,2.94,3.53,2.94
				c1.6,0,2.57-0.81,3.35-1.85l3.28,2.41c-1.47,1.91-4.03,3-6.41,3c-4.54,0-8.45-3-8.45-7.97
				C425.14,111.86,428.83,108.7,433.7,108.7z M436.02,114.95c0-1.72-1.28-2.88-2.91-2.88c-1.75,0-3.13,1.13-3.29,2.88H436.02z"/>
			<path class="st0" d="M460.28,102.13c7.01,0,12.92,3.16,12.92,11.1c0,7.04-5.69,11.04-12.32,11.04h-8.1v-22.14H460.28z
				 M460.35,119.77c4.35,0,7.79-1.78,7.79-6.73c0-4.41-3.5-6.41-7.47-6.41h-3v13.14H460.35z"/>
			<path class="st0" d="M481.01,104.29c0,1.47-1.19,2.72-2.72,2.72c-1.5,0-2.72-1.25-2.72-2.72c0-1.56,1.25-2.72,2.72-2.72
				C479.82,101.57,481.01,102.82,481.01,104.29z M480.63,109.07v15.2h-4.69v-15.2H480.63z"/>
			<path class="st0" d="M487.44,109.07l3.85,10.32h0.06l3.57-10.32h4.72l-6.01,15.2h-4.97l-6.29-15.2H487.44z"/>
			<path class="st0" d="M506.49,104.29c0,1.47-1.19,2.72-2.72,2.72c-1.5,0-2.72-1.25-2.72-2.72c0-1.56,1.25-2.72,2.72-2.72
				C505.3,101.57,506.49,102.82,506.49,104.29z M506.11,109.07v15.2h-4.69v-15.2H506.11z"/>
			<path class="st0" d="M520.93,110.7l-2.88,2.84c-0.72-0.87-1.63-1.28-2.69-1.28c-1.03,0-1.75,0.5-1.75,1.25s0.78,1.06,2.81,1.47
				c3.75,0.72,5.1,2.19,5.1,4.66c0,3.41-2.97,5-7,5c-2.57,0-4.66-0.72-5.97-2.06l2.84-3.16c0.91,1.06,1.91,1.66,3.32,1.66
				c1.38,0,2.13-0.4,2.13-1.09c0-0.84-0.97-1.19-2.41-1.47c-2.6-0.53-5.51-1.19-5.51-4.69c0-3.22,2.72-5.13,6.38-5.13
				C517.77,108.7,519.71,109.42,520.93,110.7z"/>
			<path class="st0" d="M529.11,104.29c0,1.47-1.19,2.72-2.72,2.72c-1.5,0-2.72-1.25-2.72-2.72c0-1.56,1.25-2.72,2.72-2.72
				C527.92,101.57,529.11,102.82,529.11,104.29z M528.74,109.07v15.2h-4.69v-15.2H528.74z"/>
			<path class="st0" d="M548.3,116.67c0,4.82-3.79,7.97-8.45,7.97c-4.69,0-8.45-3.1-8.45-7.97c0-4.85,3.75-7.98,8.45-7.98
				C544.54,108.7,548.3,111.83,548.3,116.67z M539.85,120.52c2.28,0,3.75-1.5,3.75-3.85c0-2.38-1.47-3.85-3.78-3.85
				c-2.28,0-3.72,1.59-3.72,3.85C536.1,118.96,537.54,120.52,539.85,120.52z"/>
			<path class="st0" d="M565.67,115.67v8.6h-4.69v-7.82c0-2.69-0.81-3.63-2.44-3.63c-1.88,0-2.82,1.13-2.82,3.72v7.72h-4.69v-15.2
				h4.5v2.07h0.06c0.85-1.53,2.5-2.44,4.44-2.44C563.88,108.7,565.67,110.67,565.67,115.67z"/>
		</g>
		<g>
			
				<ellipse transform="matrix(0.9239 -0.3827 0.3827 0.9239 -16.2764 24.3592)" class="st0" cx="53.09" cy="53.09" rx="53.09" ry="53.09"/>
			<g>
				<g>
					<path class="st0" d="M168.06,89.04c-21.97,0-37.81-14.58-37.81-36.26c0-22.07,16.33-36.16,37.33-36.16
						c10.79,0,20.8,3.6,26.54,9.14l-10.5,11.96c-3.21-3.69-8.75-6.41-15.46-6.41c-11.66,0-20.22,9.14-20.22,21.48
						c0,12.64,7.48,21.68,21,21.68c3.89,0,7.48-0.58,10.4-1.85V60.07h-13.12V46.66h28.38v36.45
						C187.89,86.61,178.65,89.04,168.06,89.04z M200.66,87.29V16.62h16.14v70.67H200.66z M248.33,88.85
						c-14.58,0-26.83-10.11-26.83-25.95s12.25-25.57,26.83-25.57c14.68,0,26.93,9.72,26.93,25.57S263.01,88.85,248.33,88.85z
						 M248.33,50.55c-7.48,0-11.37,6.12-11.37,12.34s3.99,12.54,11.47,12.54s11.47-6.32,11.47-12.54S255.82,50.55,248.33,50.55z
						 M310.28,88.65c-6.42,0-12.73-2.82-15.84-7.68h-0.19v6.32h-14.68V16.62h15.94v27.41h0.19c2.72-3.21,7.68-6.51,14.78-6.51
						c14.09,0,22.84,11.86,22.84,25.37S324.86,88.65,310.28,88.65z M306.49,50.55c-7.19,0-11.66,6.32-11.66,12.44
						c0,6.32,4.47,12.44,11.66,12.44c7.58,0,11.47-6.22,11.47-12.54C317.96,56.67,314.07,50.55,306.49,50.55z M386.97,67.46h-35.09
						c0.49,5.35,5.83,9.14,11.57,9.14c5.06,0,8.55-2.14,10.69-5.05l11.08,7c-4.57,6.61-12.15,10.3-21.97,10.3
						c-14.58,0-26.63-9.23-26.63-25.57c0-15.84,11.47-25.95,26.15-25.95c14.29,0,24.3,9.82,24.3,26.34
						C387.06,64.93,387.06,66.29,386.97,67.46z M372.39,57.55c0-5.06-3.21-9.24-9.53-9.24c-6.12,0-10.6,4.28-10.98,9.24H372.39z
						 M412.44,87.29V16.62h16.72v56.18h26.63v14.48H412.44z M468.44,32.18c-5.15,0-9.14-3.99-9.14-8.75c0-4.67,3.98-8.75,9.14-8.75
						c5.05,0,9.14,3.89,9.14,8.75C477.57,28.38,473.49,32.18,468.44,32.18z M460.47,87.29V38.88h15.94v48.41H460.47z M517.14,25.57
						c-1.17-0.39-2.82-0.68-4.37-0.68c-5.83,0-7.1,4.67-7.1,9.14v4.86h10.79v11.96h-10.79v36.45h-15.94V50.84h-8.85V38.88h8.85
						v-4.67c0-11.86,4.67-22.26,20.8-22.26c2.72,0,5.54,0.29,7.68,0.97L517.14,25.57z M567,67.46h-35.09
						c0.49,5.35,5.83,9.14,11.57,9.14c5.06,0,8.55-2.14,10.69-5.05l11.08,7c-4.57,6.61-12.15,10.3-21.97,10.3
						c-14.58,0-26.63-9.23-26.63-25.57c0-15.84,11.47-25.95,26.15-25.95c14.29,0,24.3,9.82,24.3,26.34
						C567.1,64.93,567.1,66.29,567,67.46z M552.42,57.55c0-5.06-3.21-9.24-9.53-9.24c-6.12,0-10.6,4.28-10.98,9.24H552.42z"/>
				</g>
			</g>
			<g>
				<path class="st1" d="M100.86,44.63c-1.65-9.38-6-17.83-12.21-24.53c-0.01,0.12-0.03,0.24-0.04,0.37c-0.43,4.9,0.58,9.6,3,13.96
					C93.9,38.57,97.24,42,100.86,44.63z M77.07,84.96c3.79-3.85,6.5-7.39,8.04-10.54c1.52-3.11,1.87-5.68,1.05-7.86
					c-0.39-1.05-1.38-2.31-2.79-3.56c-1.6-1.42-3.71-2.81-6.11-4.01c-2.47-1.24-5.2-2.26-7.91-2.96c-2.83-0.73-5.54-1.11-8.05-1.11
					c-2.63,0-4.89,0.41-6.7,1.22c-0.81,0.36-1.68,0.54-2.56,0.54c-1.57,0-3.08-0.58-4.24-1.64l-5.83-5.3
					c-0.82-0.74-1.39-1.7-1.66-2.76c-0.25-0.98-0.22-2.02,0.08-2.99c0.3-0.97,0.85-1.84,1.61-2.52c0.82-0.73,1.82-1.2,2.92-1.36
					c0.2-0.03,0.4-0.06,0.61-0.09c2.96-0.42,6.02-0.85,9.07-3.2c3.88-3,7.07-8.7,9.47-16.93c1.18-4.06,1.93-8.96,2.46-13.43
					c-4.26-1.22-8.77-1.88-13.42-1.88c-13.2,0-25.16,5.27-33.91,13.82c1.33,0.56,2.52,1.36,3.53,2.39c1.36,1.39,2.78,3.86,1.82,7.74
					c-0.45,1.84-1.33,3.63-2.26,5.52c-1.99,4.05-3.2,6.88-1.97,9.16c0.76,1.34,3.1,4.35,10.33,9.63c4.68,3.42,9.43,6.34,11.84,7.78
					c1.23,0.73,2.16,1.81,2.72,3.13c0.55,1.32,0.67,2.75,0.33,4.14c-0.51,2.08-0.91,4.24-0.41,5.95c0.2,0.66,0.79,2.68,5.29,4.28
					c1.62,0.58,2.91,1.82,3.54,3.42c0.63,1.6,0.54,3.39-0.25,4.92c-1.42,2.74-4.37,8.39-7.72,14.6c2.32,0.34,4.7,0.52,7.11,0.52
					c1.28,0,2.55-0.05,3.8-0.15C62.63,97.36,70.73,91.38,77.07,84.96z"/>
				<path class="st2" d="M48.88,82.46c-10.13-3.6-9.02-10.67-7.81-15.64c0.21-0.87-0.17-1.78-0.94-2.24
					c-4.6-2.74-19.98-12.26-23.83-19.13c-4.55-8.3,7.06-17.44,3.14-21.44c-1.01-1.03-2.27-1.62-3.71-1.85
					C8.77,30.56,4.59,41.34,4.59,53.09c0,22.71,15.61,41.77,36.68,47.05c3.67-6.76,6.95-13.05,8.36-15.78
					C50.01,83.63,49.65,82.73,48.88,82.46z M101.53,50.55c-5.97-3.51-10.91-8.43-13.94-13.9c-2.87-5.18-4.06-10.75-3.56-16.58
					c0.11-1.27,0.3-2.55,0.58-3.84c-4.04-3.45-8.64-6.26-13.66-8.25c-0.55,4.4-1.31,9.13-2.5,13.21
					c-6.36,21.78-16.55,22.56-22.9,23.48c-0.82,0.12-1.13,1.13-0.52,1.69l5.83,5.3c0.32,0.29,0.74,0.45,1.16,0.45
					c0.24,0,0.48-0.05,0.7-0.15c2.51-1.12,5.46-1.61,8.57-1.61c11.94,0,26.41,7.28,29.16,14.61c4.19,11.15-10.7,24.96-23.15,34.53
					c19.86-6.07,34.3-24.54,34.3-46.39C101.59,52.24,101.57,51.39,101.53,50.55z"/>
				<path class="st0" d="M100.86,44.63c0.34,1.94,0.57,3.91,0.67,5.92c-5.97-3.51-10.91-8.43-13.94-13.9
					c-2.87-5.18-4.06-10.75-3.56-16.58c0.11-1.27,0.3-2.55,0.58-3.84c1.42,1.21,2.76,2.5,4.03,3.87c-0.01,0.12-0.03,0.24-0.04,0.37
					c-0.43,4.9,0.58,9.6,3,13.96C93.9,38.57,97.24,42,100.86,44.63z M53.7,86.48c0.79-1.53,0.88-3.32,0.25-4.92
					c-0.63-1.6-1.92-2.85-3.54-3.42c-4.5-1.6-5.1-3.62-5.29-4.28c-0.5-1.71-0.1-3.87,0.41-5.95c0.34-1.39,0.23-2.82-0.33-4.14
					c-0.55-1.31-1.49-2.4-2.72-3.13c-2.41-1.44-7.16-4.36-11.84-7.78c-7.22-5.28-9.57-8.29-10.33-9.63
					c-1.23-2.28-0.02-5.11,1.97-9.16c0.93-1.89,1.81-3.68,2.26-5.52c0.96-3.89-0.46-6.36-1.82-7.74c-1.01-1.03-2.2-1.83-3.53-2.39
					c-1.21,1.19-2.37,2.44-3.45,3.75c1.44,0.24,2.7,0.83,3.71,1.85c3.92,4-7.69,13.14-3.14,21.44c3.85,6.87,19.23,16.38,23.83,19.13
					c0.77,0.46,1.15,1.37,0.94,2.24c-1.22,4.97-2.32,12.04,7.81,15.64c0.78,0.28,1.13,1.17,0.75,1.91
					c-1.41,2.73-4.69,9.01-8.36,15.78c1.54,0.39,3.11,0.7,4.71,0.93C49.33,94.87,52.28,89.21,53.7,86.48z M90.45,64.95
					c-2.75-7.33-17.22-14.61-29.16-14.61c-3.11,0-6.05,0.5-8.57,1.61c-0.22,0.1-0.46,0.15-0.7,0.15c-0.42,0-0.84-0.15-1.16-0.45
					l-5.83-5.3c-0.61-0.56-0.3-1.57,0.52-1.69c6.36-0.92,16.54-1.7,22.9-23.48c1.19-4.07,1.95-8.81,2.5-13.21
					c-1.45-0.57-2.93-1.08-4.44-1.51c-0.54,4.48-1.28,9.38-2.46,13.43c-2.41,8.24-5.59,13.94-9.47,16.93
					c-3.05,2.35-6.11,2.79-9.07,3.2c-0.21,0.03-0.41,0.06-0.61,0.09c-1.09,0.16-2.1,0.63-2.92,1.36c-0.75,0.68-1.31,1.55-1.61,2.52
					c-0.3,0.97-0.32,2.01-0.08,2.99c0.27,1.06,0.84,2.02,1.66,2.76l5.83,5.3c1.16,1.06,2.67,1.64,4.24,1.64
					c0.89,0,1.75-0.18,2.56-0.54c1.82-0.81,4.07-1.22,6.7-1.22c2.51,0,5.22,0.37,8.05,1.11c2.71,0.7,5.45,1.73,7.91,2.96
					c2.4,1.2,4.51,2.59,6.11,4.01c1.41,1.25,2.4,2.51,2.79,3.56c0.82,2.17,0.47,4.74-1.05,7.86c-1.54,3.15-4.24,6.69-8.04,10.54
					c-6.33,6.42-14.44,12.4-20.17,16.48c3.59-0.28,7.07-0.95,10.4-1.97C79.75,89.91,94.64,76.11,90.45,64.95z"/>
			</g>
		</g>
	</g>
</g>
</svg>
