<svg width="739" height="55" viewBox="0 0 739 55" fill="none" xmlns="http://www.w3.org/2000/svg">
<path d="M15.3709 16.0601C15.0542 15.4768 14.5959 15.0351 13.9959 14.7351C13.4126 14.4184 12.7209 14.2601 11.9209 14.2601C10.5376 14.2601 9.42922 14.7184 8.59589 15.6351C7.76256 16.5351 7.34589 17.7434 7.34589 19.2601C7.34589 20.8768 7.77922 22.1434 8.64589 23.0601C9.52922 23.9601 10.7376 24.4101 12.2709 24.4101C13.3209 24.4101 14.2042 24.1434 14.9209 23.6101C15.6542 23.0768 16.1876 22.3101 16.5209 21.3101H11.0959V18.1601H20.3959V22.1351C20.0792 23.2018 19.5376 24.1934 18.7709 25.1101C18.0209 26.0268 17.0626 26.7684 15.8959 27.3351C14.7292 27.9018 13.4126 28.1851 11.9459 28.1851C10.2126 28.1851 8.66256 27.8101 7.29589 27.0601C5.94589 26.2934 4.88756 25.2351 4.12089 23.8851C3.37089 22.5351 2.99589 20.9934 2.99589 19.2601C2.99589 17.5268 3.37089 15.9851 4.12089 14.6351C4.88756 13.2684 5.94589 12.2101 7.29589 11.4601C8.64589 10.6934 10.1876 10.3101 11.9209 10.3101C14.0209 10.3101 15.7876 10.8184 17.2209 11.8351C18.6709 12.8518 19.6292 14.2601 20.0959 16.0601H15.3709ZM27.0389 9.56009V28.0601H22.7639V9.56009H27.0389ZM36.4869 28.2601C35.1202 28.2601 33.8869 27.9684 32.7869 27.3851C31.7036 26.8018 30.8452 25.9684 30.2119 24.8851C29.5952 23.8018 29.2869 22.5351 29.2869 21.0851C29.2869 19.6518 29.6036 18.3934 30.2369 17.3101C30.8702 16.2101 31.7369 15.3684 32.8369 14.7851C33.9369 14.2018 35.1702 13.9101 36.5369 13.9101C37.9036 13.9101 39.1369 14.2018 40.2369 14.7851C41.3369 15.3684 42.2036 16.2101 42.8369 17.3101C43.4702 18.3934 43.7869 19.6518 43.7869 21.0851C43.7869 22.5184 43.4619 23.7851 42.8119 24.8851C42.1786 25.9684 41.3036 26.8018 40.1869 27.3851C39.0869 27.9684 37.8536 28.2601 36.4869 28.2601ZM36.4869 24.5601C37.3036 24.5601 37.9952 24.2601 38.5619 23.6601C39.1452 23.0601 39.4369 22.2018 39.4369 21.0851C39.4369 19.9684 39.1536 19.1101 38.5869 18.5101C38.0369 17.9101 37.3536 17.6101 36.5369 17.6101C35.7036 17.6101 35.0119 17.9101 34.4619 18.5101C33.9119 19.0934 33.6369 19.9518 33.6369 21.0851C33.6369 22.2018 33.9036 23.0601 34.4369 23.6601C34.9869 24.2601 35.6702 24.5601 36.4869 24.5601ZM50.3299 16.0851C50.7299 15.4351 51.3049 14.9101 52.0549 14.5101C52.8049 14.1101 53.6632 13.9101 54.6299 13.9101C55.7799 13.9101 56.8215 14.2018 57.7549 14.7851C58.6882 15.3684 59.4215 16.2018 59.9549 17.2851C60.5049 18.3684 60.7799 19.6268 60.7799 21.0601C60.7799 22.4934 60.5049 23.7601 59.9549 24.8601C59.4215 25.9434 58.6882 26.7851 57.7549 27.3851C56.8215 27.9684 55.7799 28.2601 54.6299 28.2601C53.6465 28.2601 52.7882 28.0684 52.0549 27.6851C51.3215 27.2851 50.7465 26.7601 50.3299 26.1101V28.0601H46.0549V9.56009H50.3299V16.0851ZM56.4299 21.0601C56.4299 19.9934 56.1299 19.1601 55.5299 18.5601C54.9465 17.9434 54.2215 17.6351 53.3549 17.6351C52.5049 17.6351 51.7799 17.9434 51.1799 18.5601C50.5965 19.1768 50.3049 20.0184 50.3049 21.0851C50.3049 22.1518 50.5965 22.9934 51.1799 23.6101C51.7799 24.2268 52.5049 24.5351 53.3549 24.5351C54.2049 24.5351 54.9299 24.2268 55.5299 23.6101C56.1299 22.9768 56.4299 22.1268 56.4299 21.0601ZM76.1726 20.8601C76.1726 21.2601 76.1476 21.6768 76.0976 22.1101H66.4226C66.4893 22.9768 66.7643 23.6434 67.2476 24.1101C67.7476 24.5601 68.356 24.7851 69.0726 24.7851C70.1393 24.7851 70.881 24.3351 71.2976 23.4351H75.8476C75.6143 24.3518 75.1893 25.1768 74.5726 25.9101C73.9726 26.6434 73.2143 27.2184 72.2976 27.6351C71.381 28.0518 70.356 28.2601 69.2226 28.2601C67.856 28.2601 66.6393 27.9684 65.5726 27.3851C64.506 26.8018 63.6726 25.9684 63.0726 24.8851C62.4726 23.8018 62.1726 22.5351 62.1726 21.0851C62.1726 19.6351 62.4643 18.3684 63.0476 17.2851C63.6476 16.2018 64.481 15.3684 65.5476 14.7851C66.6143 14.2018 67.8393 13.9101 69.2226 13.9101C70.5726 13.9101 71.7726 14.1934 72.8226 14.7601C73.8726 15.3268 74.6893 16.1351 75.2726 17.1851C75.8726 18.2351 76.1726 19.4601 76.1726 20.8601ZM71.7976 19.7351C71.7976 19.0018 71.5476 18.4184 71.0476 17.9851C70.5476 17.5518 69.9226 17.3351 69.1726 17.3351C68.456 17.3351 67.8476 17.5434 67.3476 17.9601C66.8643 18.3768 66.5643 18.9684 66.4476 19.7351H71.7976ZM88.0008 24.7601H93.6008V28.0601H83.7258V10.5101H88.0008V24.7601ZM97.7898 12.6601C97.0398 12.6601 96.4232 12.4434 95.9398 12.0101C95.4732 11.5601 95.2398 11.0101 95.2398 10.3601C95.2398 9.69342 95.4732 9.14342 95.9398 8.71008C96.4232 8.26008 97.0398 8.03508 97.7898 8.03508C98.5232 8.03508 99.1232 8.26008 99.5898 8.71008C100.073 9.14342 100.315 9.69342 100.315 10.3601C100.315 11.0101 100.073 11.5601 99.5898 12.0101C99.1232 12.4434 98.5232 12.6601 97.7898 12.6601ZM99.9148 14.1101V28.0601H95.6398V14.1101H99.9148ZM110.013 17.6601H107.713V28.0601H103.438V17.6601H101.888V14.1101H103.438V13.7101C103.438 11.9934 103.93 10.6934 104.913 9.81008C105.896 8.91008 107.338 8.46008 109.238 8.46008C109.555 8.46008 109.788 8.46842 109.938 8.48508V12.1101C109.121 12.0601 108.546 12.1768 108.213 12.4601C107.88 12.7434 107.713 13.2518 107.713 13.9851V14.1101H110.013V17.6601ZM125.172 20.8601C125.172 21.2601 125.147 21.6768 125.097 22.1101H115.422C115.488 22.9768 115.763 23.6434 116.247 24.1101C116.747 24.5601 117.355 24.7851 118.072 24.7851C119.138 24.7851 119.88 24.3351 120.297 23.4351H124.847C124.613 24.3518 124.188 25.1768 123.572 25.9101C122.972 26.6434 122.213 27.2184 121.297 27.6351C120.38 28.0518 119.355 28.2601 118.222 28.2601C116.855 28.2601 115.638 27.9684 114.572 27.3851C113.505 26.8018 112.672 25.9684 112.072 24.8851C111.472 23.8018 111.172 22.5351 111.172 21.0851C111.172 19.6351 111.463 18.3684 112.047 17.2851C112.647 16.2018 113.48 15.3684 114.547 14.7851C115.613 14.2018 116.838 13.9101 118.222 13.9101C119.572 13.9101 120.772 14.1934 121.822 14.7601C122.872 15.3268 123.688 16.1351 124.272 17.1851C124.872 18.2351 125.172 19.4601 125.172 20.8601ZM120.797 19.7351C120.797 19.0018 120.547 18.4184 120.047 17.9851C119.547 17.5518 118.922 17.3351 118.172 17.3351C117.455 17.3351 116.847 17.5434 116.347 17.9601C115.863 18.3768 115.563 18.9684 115.447 19.7351H120.797ZM137.317 30.7101H135.042V8.18508H137.317V30.7101ZM157.091 25.0841H150.803L149.795 28.0601H145.499L151.595 11.2121H156.347L162.443 28.0601H158.099L157.091 25.0841ZM156.035 21.9161L153.947 15.7481L151.883 21.9161H156.035ZM181.387 14.5241C183.051 14.5241 184.371 15.0281 185.347 16.0361C186.339 17.0441 186.835 18.4441 186.835 20.2361V28.0601H182.755V20.7881C182.755 19.9241 182.523 19.2601 182.059 18.7961C181.611 18.3161 180.987 18.0761 180.187 18.0761C179.387 18.0761 178.755 18.3161 178.291 18.7961C177.843 19.2601 177.619 19.9241 177.619 20.7881V28.0601H173.539V20.7881C173.539 19.9241 173.307 19.2601 172.843 18.7961C172.395 18.3161 171.771 18.0761 170.971 18.0761C170.171 18.0761 169.539 18.3161 169.075 18.7961C168.627 19.2601 168.403 19.9241 168.403 20.7881V28.0601H164.299V14.6681H168.403V16.3481C168.819 15.7881 169.363 15.3481 170.035 15.0281C170.707 14.6921 171.467 14.5241 172.315 14.5241C173.323 14.5241 174.219 14.7401 175.003 15.1721C175.803 15.6041 176.427 16.2201 176.875 17.0201C177.339 16.2841 177.971 15.6841 178.771 15.2201C179.571 14.7561 180.443 14.5241 181.387 14.5241ZM202.329 21.1481C202.329 21.5321 202.305 21.9321 202.257 22.3481H192.969C193.033 23.1801 193.297 23.8201 193.761 24.2681C194.241 24.7001 194.825 24.9161 195.513 24.9161C196.537 24.9161 197.249 24.4841 197.649 23.6201H202.017C201.793 24.5001 201.385 25.2921 200.793 25.9961C200.217 26.7001 199.489 27.2521 198.609 27.6521C197.729 28.0521 196.745 28.2521 195.657 28.2521C194.345 28.2521 193.177 27.9721 192.153 27.4121C191.129 26.8521 190.329 26.0521 189.753 25.0121C189.177 23.9721 188.889 22.7561 188.889 21.3641C188.889 19.9721 189.169 18.7561 189.729 17.7161C190.305 16.6761 191.105 15.8761 192.129 15.3161C193.153 14.7561 194.329 14.4761 195.657 14.4761C196.953 14.4761 198.105 14.7481 199.113 15.2921C200.121 15.8361 200.905 16.6121 201.465 17.6201C202.041 18.6281 202.329 19.8041 202.329 21.1481ZM198.129 20.0681C198.129 19.3641 197.889 18.8041 197.409 18.3881C196.929 17.9721 196.329 17.7641 195.609 17.7641C194.921 17.7641 194.337 17.9641 193.857 18.3641C193.393 18.7641 193.105 19.3321 192.993 20.0681H198.129ZM208.598 16.9001C209.078 16.1641 209.678 15.5881 210.398 15.1721C211.118 14.7401 211.918 14.5241 212.798 14.5241V18.8681H211.67C210.646 18.8681 209.878 19.0921 209.366 19.5401C208.854 19.9721 208.598 20.7401 208.598 21.8441V28.0601H204.494V14.6681H208.598V16.9001ZM216.823 13.2761C216.103 13.2761 215.511 13.0681 215.047 12.6521C214.599 12.2201 214.375 11.6921 214.375 11.0681C214.375 10.4281 214.599 9.90008 215.047 9.48408C215.511 9.05208 216.103 8.83608 216.823 8.83608C217.527 8.83608 218.103 9.05208 218.551 9.48408C219.015 9.90008 219.247 10.4281 219.247 11.0681C219.247 11.6921 219.015 12.2201 218.551 12.6521C218.103 13.0681 217.527 13.2761 216.823 13.2761ZM218.863 14.6681V28.0601H214.759V14.6681H218.863ZM221.022 21.3641C221.022 19.9721 221.302 18.7561 221.862 17.7161C222.438 16.6761 223.23 15.8761 224.238 15.3161C225.262 14.7561 226.43 14.4761 227.742 14.4761C229.422 14.4761 230.822 14.9161 231.942 15.7961C233.078 16.6761 233.822 17.9161 234.174 19.5161H229.806C229.438 18.4921 228.726 17.9801 227.67 17.9801C226.918 17.9801 226.318 18.2761 225.87 18.8681C225.422 19.4441 225.198 20.2761 225.198 21.3641C225.198 22.4521 225.422 23.2921 225.87 23.8841C226.318 24.4601 226.918 24.7481 227.67 24.7481C228.726 24.7481 229.438 24.2361 229.806 23.2121H234.174C233.822 24.7801 233.078 26.0121 231.942 26.9081C230.806 27.8041 229.406 28.2521 227.742 28.2521C226.43 28.2521 225.262 27.9721 224.238 27.4121C223.23 26.8521 222.438 26.0521 221.862 25.0121C221.302 23.9721 221.022 22.7561 221.022 21.3641ZM235.553 21.3401C235.553 19.9641 235.809 18.7561 236.321 17.7161C236.849 16.6761 237.561 15.8761 238.457 15.3161C239.353 14.7561 240.353 14.4761 241.457 14.4761C242.401 14.4761 243.225 14.6681 243.929 15.0521C244.649 15.4361 245.201 15.9401 245.585 16.5641V14.6681H249.689V28.0601H245.585V26.1641C245.185 26.7881 244.625 27.2921 243.905 27.6761C243.201 28.0601 242.377 28.2521 241.433 28.2521C240.345 28.2521 239.353 27.9721 238.457 27.4121C237.561 26.8361 236.849 26.0281 236.321 24.9881C235.809 23.9321 235.553 22.7161 235.553 21.3401ZM245.585 21.3641C245.585 20.3401 245.297 19.5321 244.721 18.9401C244.161 18.3481 243.473 18.0521 242.657 18.0521C241.841 18.0521 241.145 18.3481 240.569 18.9401C240.009 19.5161 239.729 20.3161 239.729 21.3401C239.729 22.3641 240.009 23.1801 240.569 23.7881C241.145 24.3801 241.841 24.6761 242.657 24.6761C243.473 24.6761 244.161 24.3801 244.721 23.7881C245.297 23.1961 245.585 22.3881 245.585 21.3641ZM260.818 14.5241C262.386 14.5241 263.634 15.0361 264.562 16.0601C265.506 17.0681 265.978 18.4601 265.978 20.2361V28.0601H261.898V20.7881C261.898 19.8921 261.666 19.1961 261.202 18.7001C260.738 18.2041 260.114 17.9561 259.33 17.9561C258.546 17.9561 257.922 18.2041 257.458 18.7001C256.994 19.1961 256.762 19.8921 256.762 20.7881V28.0601H252.658V14.6681H256.762V16.4441C257.178 15.8521 257.738 15.3881 258.442 15.0521C259.146 14.7001 259.938 14.5241 260.818 14.5241ZM278.02 11.2121V28.0601H273.916V11.2121H278.02ZM289.154 14.5241C290.722 14.5241 291.97 15.0361 292.898 16.0601C293.842 17.0681 294.314 18.4601 294.314 20.2361V28.0601H290.234V20.7881C290.234 19.8921 290.002 19.1961 289.538 18.7001C289.074 18.2041 288.45 17.9561 287.666 17.9561C286.882 17.9561 286.258 18.2041 285.794 18.7001C285.33 19.1961 285.098 19.8921 285.098 20.7881V28.0601H280.994V14.6681H285.098V16.4441C285.514 15.8521 286.074 15.3881 286.778 15.0521C287.482 14.7001 288.274 14.5241 289.154 14.5241ZM296.35 21.3641C296.35 19.9721 296.63 18.7561 297.19 17.7161C297.766 16.6761 298.558 15.8761 299.566 15.3161C300.59 14.7561 301.758 14.4761 303.07 14.4761C304.75 14.4761 306.15 14.9161 307.27 15.7961C308.406 16.6761 309.15 17.9161 309.502 19.5161H305.134C304.766 18.4921 304.054 17.9801 302.998 17.9801C302.246 17.9801 301.646 18.2761 301.198 18.8681C300.75 19.4441 300.526 20.2761 300.526 21.3641C300.526 22.4521 300.75 23.2921 301.198 23.8841C301.646 24.4601 302.246 24.7481 302.998 24.7481C304.054 24.7481 304.766 24.2361 305.134 23.2121H309.502C309.15 24.7801 308.406 26.0121 307.27 26.9081C306.134 27.8041 304.734 28.2521 303.07 28.2521C301.758 28.2521 300.59 27.9721 299.566 27.4121C298.558 26.8521 297.766 26.0521 297.19 25.0121C296.63 23.9721 296.35 22.7561 296.35 21.3641ZM317.793 28.2521C316.481 28.2521 315.297 27.9721 314.241 27.4121C313.201 26.8521 312.377 26.0521 311.769 25.0121C311.177 23.9721 310.881 22.7561 310.881 21.3641C310.881 19.9881 311.185 18.7801 311.793 17.7401C312.401 16.6841 313.233 15.8761 314.289 15.3161C315.345 14.7561 316.529 14.4761 317.841 14.4761C319.153 14.4761 320.337 14.7561 321.393 15.3161C322.449 15.8761 323.281 16.6841 323.889 17.7401C324.497 18.7801 324.801 19.9881 324.801 21.3641C324.801 22.7401 324.489 23.9561 323.865 25.0121C323.257 26.0521 322.417 26.8521 321.345 27.4121C320.289 27.9721 319.105 28.2521 317.793 28.2521ZM317.793 24.7001C318.577 24.7001 319.241 24.4121 319.785 23.8361C320.345 23.2601 320.625 22.4361 320.625 21.3641C320.625 20.2921 320.353 19.4681 319.809 18.8921C319.281 18.3161 318.625 18.0281 317.841 18.0281C317.041 18.0281 316.377 18.3161 315.849 18.8921C315.321 19.4521 315.057 20.2761 315.057 21.3641C315.057 22.4361 315.313 23.2601 315.825 23.8361C316.353 24.4121 317.009 24.7001 317.793 24.7001ZM344.066 14.5241C345.73 14.5241 347.05 15.0281 348.026 16.0361C349.018 17.0441 349.514 18.4441 349.514 20.2361V28.0601H345.434V20.7881C345.434 19.9241 345.202 19.2601 344.738 18.7961C344.29 18.3161 343.666 18.0761 342.866 18.0761C342.066 18.0761 341.434 18.3161 340.97 18.7961C340.522 19.2601 340.298 19.9241 340.298 20.7881V28.0601H336.218V20.7881C336.218 19.9241 335.986 19.2601 335.522 18.7961C335.074 18.3161 334.45 18.0761 333.65 18.0761C332.85 18.0761 332.218 18.3161 331.754 18.7961C331.306 19.2601 331.082 19.9241 331.082 20.7881V28.0601H326.978V14.6681H331.082V16.3481C331.498 15.7881 332.042 15.3481 332.714 15.0281C333.386 14.6921 334.146 14.5241 334.994 14.5241C336.002 14.5241 336.898 14.7401 337.682 15.1721C338.482 15.6041 339.106 16.2201 339.554 17.0201C340.018 16.2841 340.65 15.6841 341.45 15.2201C342.25 14.7561 343.122 14.5241 344.066 14.5241ZM365.008 21.1481C365.008 21.5321 364.984 21.9321 364.936 22.3481H355.648C355.712 23.1801 355.976 23.8201 356.44 24.2681C356.92 24.7001 357.504 24.9161 358.192 24.9161C359.216 24.9161 359.928 24.4841 360.328 23.6201H364.696C364.472 24.5001 364.064 25.2921 363.472 25.9961C362.896 26.7001 362.168 27.2521 361.288 27.6521C360.408 28.0521 359.424 28.2521 358.336 28.2521C357.024 28.2521 355.856 27.9721 354.832 27.4121C353.808 26.8521 353.008 26.0521 352.432 25.0121C351.856 23.9721 351.568 22.7561 351.568 21.3641C351.568 19.9721 351.848 18.7561 352.408 17.7161C352.984 16.6761 353.784 15.8761 354.808 15.3161C355.832 14.7561 357.008 14.4761 358.336 14.4761C359.632 14.4761 360.784 14.7481 361.792 15.2921C362.8 15.8361 363.584 16.6121 364.144 17.6201C364.72 18.6281 365.008 19.8041 365.008 21.1481ZM360.808 20.0681C360.808 19.3641 360.568 18.8041 360.088 18.3881C359.608 17.9721 359.008 17.7641 358.288 17.7641C357.6 17.7641 357.016 17.9641 356.536 18.3641C356.072 18.7641 355.784 19.3321 355.672 20.0681H360.808ZM378.571 11.2121C380.347 11.2121 381.899 11.5641 383.227 12.2681C384.555 12.9721 385.579 13.9641 386.299 15.2441C387.035 16.5081 387.403 17.9721 387.403 19.6361C387.403 21.2841 387.035 22.7481 386.299 24.0281C385.579 25.3081 384.547 26.3001 383.203 27.0041C381.875 27.7081 380.331 28.0601 378.571 28.0601H372.259V11.2121H378.571ZM378.307 24.5081C379.859 24.5081 381.067 24.0841 381.931 23.2361C382.795 22.3881 383.227 21.1881 383.227 19.6361C383.227 18.0841 382.795 16.8761 381.931 16.0121C381.067 15.1481 379.859 14.7161 378.307 14.7161H376.363V24.5081H378.307ZM391.761 13.2761C391.041 13.2761 390.449 13.0681 389.985 12.6521C389.537 12.2201 389.313 11.6921 389.313 11.0681C389.313 10.4281 389.537 9.90008 389.985 9.48408C390.449 9.05208 391.041 8.83608 391.761 8.83608C392.465 8.83608 393.041 9.05208 393.489 9.48408C393.953 9.90008 394.185 10.4281 394.185 11.0681C394.185 11.6921 393.953 12.2201 393.489 12.6521C393.041 13.0681 392.465 13.2761 391.761 13.2761ZM393.801 14.6681V28.0601H389.697V14.6681H393.801ZM402.799 24.2201L405.703 14.6681H410.071L405.319 28.0601H400.255L395.503 14.6681H399.895L402.799 24.2201ZM413.863 13.2761C413.143 13.2761 412.551 13.0681 412.087 12.6521C411.639 12.2201 411.415 11.6921 411.415 11.0681C411.415 10.4281 411.639 9.90008 412.087 9.48408C412.551 9.05208 413.143 8.83608 413.863 8.83608C414.567 8.83608 415.143 9.05208 415.591 9.48408C416.055 9.90008 416.287 10.4281 416.287 11.0681C416.287 11.6921 416.055 12.2201 415.591 12.6521C415.143 13.0681 414.567 13.2761 413.863 13.2761ZM415.903 14.6681V28.0601H411.799V14.6681H415.903ZM424.325 28.2521C423.157 28.2521 422.117 28.0521 421.205 27.6521C420.293 27.2521 419.573 26.7081 419.045 26.0201C418.517 25.3161 418.221 24.5321 418.157 23.6681H422.213C422.261 24.1321 422.477 24.5081 422.861 24.7961C423.245 25.0841 423.717 25.2281 424.277 25.2281C424.789 25.2281 425.181 25.1321 425.453 24.9401C425.741 24.7321 425.885 24.4681 425.885 24.1481C425.885 23.7641 425.685 23.4841 425.285 23.3081C424.885 23.1161 424.237 22.9081 423.341 22.6841C422.381 22.4601 421.581 22.2281 420.941 21.9881C420.301 21.7321 419.749 21.3401 419.285 20.8121C418.821 20.2681 418.589 19.5401 418.589 18.6281C418.589 17.8601 418.797 17.1641 419.213 16.5401C419.645 15.9001 420.269 15.3961 421.085 15.0281C421.917 14.6601 422.901 14.4761 424.037 14.4761C425.717 14.4761 427.037 14.8921 427.997 15.7241C428.973 16.5561 429.533 17.6601 429.677 19.0361H425.885C425.821 18.5721 425.613 18.2041 425.261 17.9321C424.925 17.6601 424.477 17.5241 423.917 17.5241C423.437 17.5241 423.069 17.6201 422.813 17.8121C422.557 17.9881 422.429 18.2361 422.429 18.5561C422.429 18.9401 422.629 19.2281 423.029 19.4201C423.445 19.6121 424.085 19.8041 424.949 19.9961C425.941 20.2521 426.749 20.5081 427.373 20.7641C427.997 21.0041 428.541 21.4041 429.005 21.9641C429.485 22.5081 429.733 23.2441 429.749 24.1721C429.749 24.9561 429.525 25.6601 429.077 26.2841C428.645 26.8921 428.013 27.3721 427.181 27.7241C426.365 28.0761 425.413 28.2521 424.325 28.2521ZM434.323 13.2761C433.603 13.2761 433.011 13.0681 432.547 12.6521C432.099 12.2201 431.875 11.6921 431.875 11.0681C431.875 10.4281 432.099 9.90008 432.547 9.48408C433.011 9.05208 433.603 8.83608 434.323 8.83608C435.027 8.83608 435.603 9.05208 436.051 9.48408C436.515 9.90008 436.747 10.4281 436.747 11.0681C436.747 11.6921 436.515 12.2201 436.051 12.6521C435.603 13.0681 435.027 13.2761 434.323 13.2761ZM436.363 14.6681V28.0601H432.259V14.6681H436.363ZM445.434 28.2521C444.122 28.2521 442.938 27.9721 441.882 27.4121C440.842 26.8521 440.018 26.0521 439.41 25.0121C438.818 23.9721 438.522 22.7561 438.522 21.3641C438.522 19.9881 438.826 18.7801 439.434 17.7401C440.042 16.6841 440.874 15.8761 441.93 15.3161C442.986 14.7561 444.17 14.4761 445.482 14.4761C446.794 14.4761 447.978 14.7561 449.034 15.3161C450.09 15.8761 450.922 16.6841 451.53 17.7401C452.138 18.7801 452.442 19.9881 452.442 21.3641C452.442 22.7401 452.13 23.9561 451.506 25.0121C450.898 26.0521 450.058 26.8521 448.986 27.4121C447.93 27.9721 446.746 28.2521 445.434 28.2521ZM445.434 24.7001C446.218 24.7001 446.882 24.4121 447.426 23.8361C447.986 23.2601 448.266 22.4361 448.266 21.3641C448.266 20.2921 447.994 19.4681 447.45 18.8921C446.922 18.3161 446.266 18.0281 445.482 18.0281C444.682 18.0281 444.018 18.3161 443.49 18.8921C442.962 19.4521 442.698 20.2761 442.698 21.3641C442.698 22.4361 442.954 23.2601 443.466 23.8361C443.994 24.4121 444.65 24.7001 445.434 24.7001ZM462.779 14.5241C464.347 14.5241 465.595 15.0361 466.523 16.0601C467.467 17.0681 467.939 18.4601 467.939 20.2361V28.0601H463.859V20.7881C463.859 19.8921 463.627 19.1961 463.163 18.7001C462.699 18.2041 462.075 17.9561 461.291 17.9561C460.507 17.9561 459.883 18.2041 459.419 18.7001C458.955 19.1961 458.723 19.8921 458.723 20.7881V28.0601H454.619V14.6681H458.723V16.4441C459.139 15.8521 459.699 15.3881 460.403 15.0521C461.107 14.7001 461.899 14.5241 462.779 14.5241Z" fill="white"/>
<path d="M17.7932 40.7175L15.9332 51.2475H13.3682L14.4932 44.9325L11.0132 51.2475H8.94323L7.68323 44.9025L6.57323 51.2475H4.00823L5.86823 40.7175H8.89823L10.5782 48.0075L14.7782 40.7175H17.7932ZM24.6628 49.3875H20.7328L19.7728 51.2475H17.0878L22.7578 40.7175H25.7278L27.6778 51.2475H24.9628L24.6628 49.3875ZM24.3628 47.4375L23.7478 43.5375L21.7378 47.4375H24.3628ZM37.2973 40.7175L36.0373 47.8875C35.8373 48.9975 35.3723 49.8525 34.6423 50.4525C33.9123 51.0525 33.0173 51.3525 31.9573 51.3525C30.9973 51.3525 30.2373 51.1125 29.6773 50.6325C29.1273 50.1525 28.8523 49.4625 28.8523 48.5625C28.8523 48.2525 28.8773 47.9725 28.9273 47.7225H31.4773C31.4473 47.8825 31.4323 48.0275 31.4323 48.1575C31.4323 48.4575 31.5073 48.6825 31.6573 48.8325C31.8073 48.9825 32.0173 49.0575 32.2873 49.0575C32.5973 49.0575 32.8523 48.9625 33.0523 48.7725C33.2623 48.5725 33.4023 48.2775 33.4723 47.8875L34.7323 40.7175H37.2973ZM41.9342 40.7175L40.0742 51.2475H37.5092L39.3692 40.7175H41.9342ZM47.738 40.7175C48.708 40.7175 49.543 40.8925 50.243 41.2425C50.953 41.5825 51.493 42.0675 51.863 42.6975C52.243 43.3175 52.433 44.0475 52.433 44.8875C52.433 45.1775 52.398 45.5425 52.328 45.9825C52.148 47.0125 51.758 47.9275 51.158 48.7275C50.568 49.5275 49.813 50.1475 48.893 50.5875C47.983 51.0275 46.978 51.2475 45.878 51.2475H41.933L43.793 40.7175H47.738ZM46.103 49.0575C47.073 49.0575 47.878 48.7875 48.518 48.2475C49.158 47.7075 49.558 46.9525 49.718 45.9825C49.768 45.6825 49.793 45.4325 49.793 45.2325C49.793 44.4925 49.568 43.9225 49.118 43.5225C48.668 43.1125 48.028 42.9075 47.198 42.9075H45.968L44.888 49.0575H46.103ZM57.2565 40.7175L55.3965 51.2475H52.8315L54.6915 40.7175H57.2565ZM65.737 51.3525C64.847 51.3525 64.062 51.1675 63.382 50.7975C62.712 50.4275 62.192 49.9075 61.822 49.2375C61.452 48.5675 61.267 47.7975 61.267 46.9275C61.267 45.6975 61.532 44.6025 62.062 43.6425C62.592 42.6725 63.327 41.9175 64.267 41.3775C65.217 40.8375 66.292 40.5675 67.492 40.5675C68.392 40.5675 69.182 40.7525 69.862 41.1225C70.542 41.4825 71.067 41.9975 71.437 42.6675C71.807 43.3275 71.992 44.0875 71.992 44.9475C71.992 46.1775 71.727 47.2825 71.197 48.2625C70.667 49.2325 69.927 49.9925 68.977 50.5425C68.027 51.0825 66.947 51.3525 65.737 51.3525ZM66.127 48.9825C66.787 48.9825 67.367 48.8125 67.867 48.4725C68.367 48.1325 68.752 47.6775 69.022 47.1075C69.302 46.5275 69.442 45.9025 69.442 45.2325C69.442 44.5125 69.242 43.9475 68.842 43.5375C68.442 43.1275 67.882 42.9225 67.162 42.9225C66.502 42.9225 65.917 43.0925 65.407 43.4325C64.907 43.7725 64.517 44.2275 64.237 44.7975C63.967 45.3575 63.832 45.9775 63.832 46.6575C63.832 47.3775 64.032 47.9475 64.432 48.3675C64.832 48.7775 65.397 48.9825 66.127 48.9825ZM78.684 40.7175C79.774 40.7175 80.604 40.9675 81.174 41.4675C81.744 41.9575 82.029 42.5975 82.029 43.3875C82.029 43.6175 82.009 43.8325 81.969 44.0325C81.849 44.7325 81.544 45.3575 81.054 45.9075C80.564 46.4575 79.909 46.8475 79.089 47.0775L80.784 51.2475H77.889L76.404 47.2725H75.789L75.084 51.2475H72.519L74.379 40.7175H78.684ZM79.344 44.1375C79.364 43.9775 79.374 43.8725 79.374 43.8225C79.374 43.5025 79.269 43.2575 79.059 43.0875C78.859 42.9075 78.559 42.8175 78.159 42.8175H76.569L76.104 45.4575H77.694C78.164 45.4575 78.534 45.3425 78.804 45.1125C79.084 44.8825 79.264 44.5575 79.344 44.1375ZM82.8141 45.9675C82.9941 44.9275 83.3791 44.0025 83.9691 43.1925C84.5691 42.3725 85.3141 41.7375 86.2041 41.2875C87.0941 40.8275 88.0591 40.5975 89.0991 40.5975C90.3591 40.5975 91.3691 40.9025 92.1291 41.5125C92.8991 42.1225 93.3191 42.9675 93.3891 44.0475H90.5691C90.4391 43.6975 90.2091 43.4325 89.8791 43.2525C89.5591 43.0625 89.1641 42.9675 88.6941 42.9675C87.8641 42.9675 87.1491 43.2425 86.5491 43.7925C85.9591 44.3325 85.5841 45.0575 85.4241 45.9675C85.3741 46.2675 85.3491 46.5275 85.3491 46.7475C85.3491 47.4875 85.5641 48.0575 85.9941 48.4575C86.4241 48.8575 87.0341 49.0575 87.8241 49.0575C88.4641 49.0575 89.0291 48.8975 89.5191 48.5775C90.0091 48.2475 90.4041 47.7825 90.7041 47.1825H87.4641L87.7791 45.3075H93.3591L92.9391 47.6925C92.6391 48.3325 92.2091 48.9275 91.6491 49.4775C91.0991 50.0275 90.4441 50.4725 89.6841 50.8125C88.9241 51.1525 88.1041 51.3225 87.2241 51.3225C86.3141 51.3225 85.5141 51.1475 84.8241 50.7975C84.1441 50.4375 83.6191 49.9375 83.2491 49.2975C82.8891 48.6575 82.7091 47.9125 82.7091 47.0625C82.7091 46.7725 82.7441 46.4075 82.8141 45.9675ZM100.615 49.3875H96.6849L95.7249 51.2475H93.0399L98.7099 40.7175H101.68L103.63 51.2475H100.915L100.615 49.3875ZM100.315 47.4375L99.6999 43.5375L97.6899 47.4375H100.315ZM114.209 51.2475H111.644L108.509 44.7525L107.354 51.2475H104.789L106.649 40.7175H109.214L112.349 47.2425L113.504 40.7175H116.069L114.209 51.2475ZM120.494 40.7175L118.634 51.2475H116.069L117.929 40.7175H120.494ZM123.598 49.1475H128.128L127.753 51.2475H120.313L120.658 49.2975L126.298 42.8175H121.798L122.173 40.7175H129.613L129.268 42.6675L123.598 49.1475ZM136.313 49.3875H132.383L131.423 51.2475H128.738L134.408 40.7175H137.378L139.328 51.2475H136.613L136.313 49.3875ZM136.013 47.4375L135.398 43.5375L133.388 47.4375H136.013ZM149.923 40.7175L149.578 42.7425H146.773L145.273 51.2475H142.708L144.208 42.7425H141.418L141.778 40.7175H149.923ZM153.775 40.7175L151.915 51.2475H149.35L151.21 40.7175H153.775ZM158.784 51.3525C157.894 51.3525 157.109 51.1675 156.429 50.7975C155.759 50.4275 155.239 49.9075 154.869 49.2375C154.499 48.5675 154.314 47.7975 154.314 46.9275C154.314 45.6975 154.579 44.6025 155.109 43.6425C155.639 42.6725 156.374 41.9175 157.314 41.3775C158.264 40.8375 159.339 40.5675 160.539 40.5675C161.439 40.5675 162.229 40.7525 162.909 41.1225C163.589 41.4825 164.114 41.9975 164.484 42.6675C164.854 43.3275 165.039 44.0875 165.039 44.9475C165.039 46.1775 164.774 47.2825 164.244 48.2625C163.714 49.2325 162.974 49.9925 162.024 50.5425C161.074 51.0825 159.994 51.3525 158.784 51.3525ZM159.174 48.9825C159.834 48.9825 160.414 48.8125 160.914 48.4725C161.414 48.1325 161.799 47.6775 162.069 47.1075C162.349 46.5275 162.489 45.9025 162.489 45.2325C162.489 44.5125 162.289 43.9475 161.889 43.5375C161.489 43.1275 160.929 42.9225 160.209 42.9225C159.549 42.9225 158.964 43.0925 158.454 43.4325C157.954 43.7725 157.564 44.2275 157.284 44.7975C157.014 45.3575 156.879 45.9775 156.879 46.6575C156.879 47.3775 157.079 47.9475 157.479 48.3675C157.879 48.7775 158.444 48.9825 159.174 48.9825ZM174.986 51.2475H172.421L169.286 44.7525L168.131 51.2475H165.566L167.426 40.7175H169.991L173.126 47.2425L174.281 40.7175H176.846L174.986 51.2475Z" fill="white"/>
</svg>
